<svg width="889" height="214" viewBox="0 0 889 214" fill="none" xmlns="http://www.w3.org/2000/svg">
<rect x="13" y="13" width="863" height="188" fill="#FFC700"/>
<rect x="865" y="189" width="22" height="22" fill="white" stroke="black" stroke-width="4"/>
<rect x="2" y="190" width="22" height="22" fill="white" stroke="black" stroke-width="4"/>
<rect x="865" y="2" width="22" height="22" fill="white" stroke="black" stroke-width="4"/>
<rect x="2" y="2" width="22" height="22" fill="white" stroke="black" stroke-width="4"/>
<path d="M58.5516 151V58.6H129.568V75.232H78.6156V99.256H119.404V115.888H78.6156V151H58.5516ZM137.156 76.024V58.336H157.088V76.024H137.156ZM137.816 151V85H156.56V151H137.816ZM181.421 176.74C168.881 176.74 164.921 170.668 164.921 164.332C164.921 159.052 169.277 155.224 174.029 153.772V147.7C169.805 146.512 166.505 143.608 166.505 138.856C166.505 131.728 171.653 128.296 177.329 126.448V120.508C172.709 117.208 169.805 113.512 169.805 106.78C169.805 92.92 181.817 83.02 197.261 83.02C208.085 83.02 217.985 87.244 221.417 96.88H227.093C228.149 87.244 231.185 85 237.521 85H240.953V99.256H233.693C229.601 99.256 228.545 100.18 227.753 106.912L227.621 108.1C226.037 122.356 214.553 131.068 199.109 131.068C194.225 131.068 189.341 130.54 185.381 128.824C181.685 129.88 180.365 131.332 180.365 133.444C180.365 136.348 183.137 136.348 186.965 136.348H215.345C229.469 136.348 238.313 145.588 238.313 156.28C238.313 169.612 228.281 176.74 215.345 176.74H181.421ZM198.977 118.792C205.973 118.792 210.593 114.304 210.593 107.572C210.593 100.708 205.973 95.692 198.977 95.692C191.981 95.692 187.361 100.708 187.361 107.572C187.361 114.304 191.981 118.792 198.977 118.792ZM185.909 163.144H211.649C217.853 163.144 219.833 160.636 219.833 156.94C219.833 153.904 217.853 151 211.649 151H182.741C181.157 151.924 179.309 154.3 179.309 156.94C179.309 161.164 182.345 163.144 185.909 163.144ZM247.848 151V85H263.952C263.952 89.224 261.444 95.032 258.672 98.728H266.988C269.1 89.752 274.644 83.02 284.676 83.02C292.596 83.02 300.12 88.036 302.1 98.728H308.304C311.604 88.3 318.996 83.02 327.18 83.02C339.06 83.02 348.696 91.204 348.696 108.1V151H329.952V110.872C329.952 102.028 325.86 98.464 319.656 98.464C307.776 98.464 307.512 110.74 307.512 117.34V151H289.032V110.872C289.032 102.028 284.94 98.464 278.736 98.464C266.856 98.464 266.592 110.74 266.592 117.34V151H247.848ZM379.645 153.112C367.501 153.112 358.525 145.72 358.525 134.104C358.525 115.624 378.061 110.212 399.973 108.1V105.592C399.973 99.916 396.673 96.484 389.149 96.484C380.569 96.484 376.213 100.708 374.629 106.912L357.733 103.216C358.789 92.92 369.745 83.02 389.017 83.02C407.497 83.02 418.453 91.204 418.453 108.628V132.784C418.453 136.084 418.849 136.744 422.413 136.744H428.221V151H420.433C408.817 151 406.309 147.04 406.045 137.272H399.841C397.201 145.852 390.997 153.112 379.645 153.112ZM386.113 139.384C393.373 139.384 399.973 134.632 399.973 123.94V119.716C387.829 121.168 377.533 123.544 377.533 132.256C377.533 136.612 380.437 139.384 386.113 139.384ZM502.876 153.112C488.884 153.112 483.868 144.136 480.568 137.536H472.648C475.288 141.364 478.324 146.38 478.324 151H461.296V58.6H480.04V71.536C480.04 87.244 476.08 93.448 472.78 98.596H480.7C483.604 91.864 489.28 83.02 502.876 83.02C518.98 83.02 530.068 97.144 530.068 118C530.068 138.856 518.98 153.112 502.876 153.112ZM494.956 138.856C503.668 138.856 510.4 133.444 510.4 118C510.4 102.556 503.668 97.144 494.956 97.144C485.584 97.144 479.248 104.008 479.248 118C479.248 131.992 485.716 138.856 494.956 138.856ZM557.386 153.112C545.242 153.112 536.266 145.72 536.266 134.104C536.266 115.624 555.802 110.212 577.714 108.1V105.592C577.714 99.916 574.414 96.484 566.89 96.484C558.31 96.484 553.954 100.708 552.37 106.912L535.474 103.216C536.53 92.92 547.486 83.02 566.758 83.02C585.238 83.02 596.194 91.204 596.194 108.628V132.784C596.194 136.084 596.59 136.744 600.154 136.744H605.962V151H598.174C586.558 151 584.05 147.04 583.786 137.272H577.582C574.942 145.852 568.738 153.112 557.386 153.112ZM563.854 139.384C571.114 139.384 577.714 134.632 577.714 123.94V119.716C565.57 121.168 555.274 123.544 555.274 132.256C555.274 136.612 558.178 139.384 563.854 139.384ZM637.407 152.848C621.831 152.848 609.159 145.588 606.387 133.972L623.415 128.56C623.679 130.012 625.659 139.648 638.463 139.648C645.063 139.648 648.495 136.744 648.495 133.048C648.495 130.012 647.043 127.372 640.311 126.052L630.939 124.204C617.079 121.432 609.027 116.812 609.027 103.876C609.027 91.336 619.719 83.02 637.407 83.02C653.907 83.02 662.355 91.6 665.259 98.2L649.815 105.196C647.835 99.784 643.083 95.956 636.483 95.956C630.147 95.956 627.111 98.728 627.111 102.292C627.111 105.724 629.091 107.44 636.219 108.76L645.327 110.476C657.735 112.852 668.031 118.528 668.031 131.068C668.031 144.268 656.679 152.848 637.407 152.848ZM676.53 76.024V58.336H696.462V76.024H676.53ZM677.19 151V85H695.934V151H677.19ZM740.86 153.112C720.532 153.112 705.484 139.12 705.484 117.868C705.484 96.616 721.06 83.02 740.992 83.02C756.832 83.02 768.052 91.6 772.408 102.82L755.116 109.288C752.476 101.764 747.196 97.804 740.332 97.804C731.488 97.804 724.36 104.272 724.36 117.868C724.36 131.464 731.752 138.196 740.464 138.196C748.12 138.196 752.872 134.104 755.776 125.656L773.464 131.992C768.448 144.664 756.436 153.112 740.86 153.112ZM806.769 152.848C791.193 152.848 778.521 145.588 775.749 133.972L792.777 128.56C793.041 130.012 795.021 139.648 807.825 139.648C814.425 139.648 817.857 136.744 817.857 133.048C817.857 130.012 816.405 127.372 809.673 126.052L800.301 124.204C786.441 121.432 778.389 116.812 778.389 103.876C778.389 91.336 789.081 83.02 806.769 83.02C823.269 83.02 831.717 91.6 834.621 98.2L819.177 105.196C817.197 99.784 812.445 95.956 805.845 95.956C799.509 95.956 796.473 98.728 796.473 102.292C796.473 105.724 798.453 107.44 805.581 108.76L814.689 110.476C827.097 112.852 837.393 118.528 837.393 131.068C837.393 144.268 826.041 152.848 806.769 152.848Z" fill="black"/>
<rect x="13" y="13" width="863" height="188" stroke="black" stroke-width="4"/>
</svg>
