<svg width="416" height="77" viewBox="0 0 416 77" fill="none" xmlns="http://www.w3.org/2000/svg">
<path d="M-291.75 47.5627C-262.342 47.5627 -10.3392 41.2923 -10.4592 47.6541C-10.5792 54.0159 -10.4592 66.6745 -10.4592 73.0599C-10.4592 75.5519 -9.10298 73.362 -8.08312 72.146C-0.502985 63.1081 7.80413 55.1187 16.9571 47.6541C38.7423 29.8875 63.1883 14.2803 90.2499 5.98142C98.3288 3.50386 112.409 0.573627 120.956 3.42256C128.802 6.03771 124.429 42.1857 124.429 50.3044C124.429 52.7388 122.826 63.717 124.794 65.2919C126.358 66.5431 161.816 41.2736 164.457 39.7034C185.159 27.3938 258.032 -14.8279 261.784 33.946C262.572 44.1891 262.607 54.3902 262.607 64.6522C262.607 74.9799 303.425 50.3978 304.736 49.756C334.454 35.2102 361.524 24.1222 394.662 22.9795C401.183 22.7546 407.73 22.4614 413.944 24.5331" stroke="black" stroke-width="4" stroke-linecap="round" stroke-linejoin="round"/>
</svg>
